<?xml version="1.0" encoding="UTF-8"?>
<svg width="12px" height="12px" viewBox="0 0 12 12" version="1.1" xmlns="http://www.w3.org/2000/svg" xmlns:xlink="http://www.w3.org/1999/xlink">
    <g id="1.9版本08月15" stroke="none" stroke-width="1" fill="none" fill-rule="evenodd">
        <g id="库位样式说明" transform="translate(-600.000000, -724.000000)">
            <g id="充电" transform="translate(600.000000, 724.000000)">
                <rect id="矩形" x="0" y="0" width="12" height="12"></rect>
                <path d="M11.4021739,1 C11.7323444,1 12,1.32920209 12,1.73529412 L12,10.2647059 C12,10.6707979 11.7323444,11 11.4021739,11 L1.35869565,11 C1.16059342,11 1,10.8024787 1,10.5588235 L1,8 L2.4492936e-16,7 L3.6739404e-16,5 L1,4 L1,1.44117645 C1,1.19752125 1.16059337,1 1.35869565,1 L11.4021739,1 Z M11.4021739,1.5 L1.5,1.5 L1.5,4.20710678 L0.5,5.207 L0.5,6.794 L1.5,7.79289322 L1.5,10.5 L11.4021739,10.5 C11.4250302,10.5 11.4739251,10.4454842 11.4925688,10.3468199 L11.5,10.2647059 L11.5,1.73529412 C11.5,1.61520354 11.4556763,1.53666965 11.4233188,1.51005972 L11.4021739,1.5 Z M6.42776271,3.91059596 L6.51752511,3.925941 L9.62656242,6.65029933 C9.87123014,6.88238922 9.62656242,7.03949338 9.62656242,7.03949338 L9.62656242,7.03949338 L6.78787622,7.03949338 L6.78787622,8.07734417 C6.72028845,8.17152913 6.51752515,8.07734417 6.51752515,8.07734417 L6.51752515,8.07734417 L3.27331231,5.22325451 C3.25709124,4.89892614 3.54366337,4.96379181 3.54366337,4.96379181 L3.54366337,4.96379181 L6.24717404,4.96379181 L6.24717404,3.92594103 C6.33569554,3.90292344 6.42900375,3.90292344 6.51752511,3.925941 Z" id="形状结合" fill="#08B562" fill-rule="nonzero"></path>
            </g>
        </g>
    </g>
</svg>