<?xml version="1.0" encoding="UTF-8"?>
<svg width="12px" height="12px" viewBox="0 0 12 12" version="1.1" xmlns="http://www.w3.org/2000/svg" xmlns:xlink="http://www.w3.org/1999/xlink">
    <g id="1.9版本08月15" stroke="none" stroke-width="1" fill="none" fill-rule="evenodd">
        <g id="库位样式说明" transform="translate(-628.000000, -724.000000)">
            <g id="待命" transform="translate(628.000000, 724.000000)">
                <rect id="矩形" x="2.27373675e-12" y="0" width="12" height="12"></rect>
                <path d="M6,3.63797881e-12 C9.3137085,3.63797881e-12 12,2.6862915 12,6 C12,9.3137085 9.3137085,12 6,12 C2.6862915,12 1.13851326e-13,9.3137085 1.14054232e-13,6 C1.14257138e-13,2.6862915 2.6862915,3.63797881e-12 6,3.63797881e-12 Z M6,0.5 C2.96243388,0.5 0.5,2.96243388 0.5,6 C0.5,9.03756612 2.96243388,11.5 6,11.5 C9.03756612,11.5 11.5,9.03756612 11.5,6 C11.5,2.96243388 9.03756612,0.5 6,0.5 Z M4.90625,3.42019099 C6.26041667,3.44102433 6.94791667,4.12852433 6.96875,5.48269099 L6.96875,6.38894099 L9.40625,6.38894099 L9.40625,7.45144099 L2.9375,7.45144099 L2.9375,5.57644099 C2.97916667,4.18060766 3.63541667,3.46185766 4.90625,3.42019099 Z M4.90625,4.51394099 C4.28125,4.51394099 3.96875,4.83685766 3.96875,5.48269099 L3.96875,6.38894099 L5.90625,6.38894099 L5.90625,5.48269099 C5.92708333,4.81602433 5.59375,4.49310766 4.90625,4.51394099 Z" id="形状结合" fill="#ED7B00" fill-rule="nonzero"></path>
            </g>
        </g>
    </g>
</svg>